<svg width="500" height="28" viewBox="0 0 500 28" fill="none" xmlns="http://www.w3.org/2000/svg">
<path d="M196.713 3.6291C282.43 0.270488 325.22 0.02047 389.651 2.50454C404.527 3.07816 439.279 4.96854 445.717 5.55429C449.129 5.86478 457.38 6.67118 464.053 7.34585C470.725 8.02079 479.405 8.80023 483.34 9.0785C494.031 9.83426 498.724 10.4942 499.521 11.3556C500.147 12.0323 500.103 12.5476 499.362 13.2091C498.651 13.8437 497.847 13.791 475.497 11.6217C451.369 9.27988 391.665 6.05388 368.226 5.82493C331.975 5.47125 305.802 5.72271 272.688 6.74225C242.459 7.67302 189.586 10.1754 193.405 10.4947C193.924 10.5381 195.631 10.5181 197.199 10.4504C211.963 9.81317 239.861 9.57479 263.326 9.88399C287.258 10.1995 354.677 13.231 360.102 14.2357C363.661 14.8949 365.152 15.8495 364.786 17.267C355.044 16.6873 345.051 16.2466 334.842 15.9517C315.574 15.0656 280.043 13.7378 267.081 13.5134C199 12.335 155.426 14.462 82.1967 22.5366C71.3992 23.7274 69.7297 23.6036 70.3481 21.6589C70.5923 20.8911 70.2114 20.9668 83.38 19.0728C118.382 14.038 132.064 12.3759 155.35 10.3313C185.403 7.69222 202.347 6.68415 252.067 4.57701C256.695 4.38092 259.997 4.1826 259.403 4.13639C256.507 3.91071 170.058 6.70815 151.823 7.61731C127.935 8.80822 98.8922 11.1161 72.2808 13.9386C27.2302 18.7164 8.87595 21.8764 1.89157 26.0565C0.378265 26.9622 -0.00568414 27.1585 0.000154716 27.023C0.0395996 26.1992 8.22837 22.4864 12.7852 21.2264C34.7579 15.1507 113.957 6.82645 170.522 4.64724C177.389 4.38248 189.175 3.92428 196.713 3.6291ZM188.523 10.6039C188.151 10.5861 187.996 10.6396 188.179 10.722C188.361 10.8046 188.665 10.8192 188.854 10.7543C189.044 10.6896 188.894 10.6217 188.523 10.6039ZM191.237 10.4977C190.568 10.4657 190.292 10.5046 190.623 10.5839C190.954 10.6631 191.502 10.6899 191.839 10.6428C192.177 10.5953 191.905 10.5296 191.237 10.4977ZM262.251 4.05242C261.434 4.01339 261.097 4.04785 261.502 4.12813C261.908 4.20847 262.577 4.24056 262.989 4.19931C263.401 4.15805 263.069 4.09149 262.251 4.05242ZM265.913 3.95757C265.17 3.92421 264.896 3.96318 265.304 4.04386C265.712 4.12423 266.32 4.1515 266.655 4.10448C266.99 4.05744 266.656 3.99123 265.913 3.95757ZM269.711 3.84887C269.265 3.83287 269.112 3.88511 269.372 3.96505C269.631 4.04504 269.997 4.05815 270.183 3.9942C270.369 3.9302 270.157 3.86488 269.711 3.84887Z" fill="#FFFFFF"/>
</svg>
